<mxfile host="app.diagrams.net" agent="Mozilla/5.0 (X11; Linux x86_64; rv:137.0) Gecko/20100101 Firefox/137.0" version="26.2.8">
  <diagram name="Page-1" id="VzqM7J8tysnEueoCkd5Q">
    <mxGraphModel dx="1894" dy="677" grid="1" gridSize="10" guides="1" tooltips="1" connect="1" arrows="1" fold="1" page="1" pageScale="1" pageWidth="850" pageHeight="1100" math="0" shadow="0">
      <root>
        <mxCell id="0" />
        <mxCell id="1" parent="0" />
        <mxCell id="BbmM9StXe9BSazT1SABr-98" style="edgeStyle=none;shape=connector;rounded=0;orthogonalLoop=1;jettySize=auto;html=1;entryX=0.5;entryY=0;entryDx=0;entryDy=0;strokeColor=default;align=center;verticalAlign=middle;fontFamily=Helvetica;fontSize=11;fontColor=default;labelBackgroundColor=default;endArrow=classic;" edge="1" parent="1" source="BbmM9StXe9BSazT1SABr-5" target="BbmM9StXe9BSazT1SABr-45">
          <mxGeometry relative="1" as="geometry" />
        </mxCell>
        <mxCell id="BbmM9StXe9BSazT1SABr-104" value="Recieve Command" style="edgeLabel;html=1;align=center;verticalAlign=middle;resizable=0;points=[];fontFamily=Helvetica;fontSize=11;fontColor=default;labelBackgroundColor=default;" vertex="1" connectable="0" parent="BbmM9StXe9BSazT1SABr-98">
          <mxGeometry x="-0.0024" y="-1" relative="1" as="geometry">
            <mxPoint as="offset" />
          </mxGeometry>
        </mxCell>
        <mxCell id="BbmM9StXe9BSazT1SABr-99" style="edgeStyle=none;shape=connector;rounded=0;orthogonalLoop=1;jettySize=auto;html=1;entryX=0.5;entryY=0;entryDx=0;entryDy=0;strokeColor=default;align=center;verticalAlign=middle;fontFamily=Helvetica;fontSize=11;fontColor=default;labelBackgroundColor=default;endArrow=classic;" edge="1" parent="1" source="BbmM9StXe9BSazT1SABr-5" target="BbmM9StXe9BSazT1SABr-33">
          <mxGeometry relative="1" as="geometry" />
        </mxCell>
        <mxCell id="BbmM9StXe9BSazT1SABr-101" value="Receive Message" style="edgeLabel;html=1;align=center;verticalAlign=middle;resizable=0;points=[];fontFamily=Helvetica;fontSize=11;fontColor=default;labelBackgroundColor=default;" vertex="1" connectable="0" parent="BbmM9StXe9BSazT1SABr-99">
          <mxGeometry x="-0.1728" relative="1" as="geometry">
            <mxPoint as="offset" />
          </mxGeometry>
        </mxCell>
        <mxCell id="BbmM9StXe9BSazT1SABr-5" value="Idle" style="html=1;align=center;verticalAlign=top;rounded=1;absoluteArcSize=1;arcSize=10;dashed=0;whiteSpace=wrap;" vertex="1" parent="1">
          <mxGeometry x="-510" y="100" width="100" height="30" as="geometry" />
        </mxCell>
        <mxCell id="BbmM9StXe9BSazT1SABr-113" style="edgeStyle=none;shape=connector;rounded=0;orthogonalLoop=1;jettySize=auto;html=1;entryX=0.5;entryY=0;entryDx=0;entryDy=0;strokeColor=default;align=center;verticalAlign=middle;fontFamily=Helvetica;fontSize=11;fontColor=default;labelBackgroundColor=default;endArrow=classic;exitX=0.75;exitY=1;exitDx=0;exitDy=0;" edge="1" parent="1" source="BbmM9StXe9BSazT1SABr-10" target="BbmM9StXe9BSazT1SABr-53">
          <mxGeometry relative="1" as="geometry" />
        </mxCell>
        <mxCell id="BbmM9StXe9BSazT1SABr-114" value="Spam Found" style="edgeLabel;html=1;align=center;verticalAlign=middle;resizable=0;points=[];fontFamily=Helvetica;fontSize=11;fontColor=default;labelBackgroundColor=default;" vertex="1" connectable="0" parent="BbmM9StXe9BSazT1SABr-113">
          <mxGeometry x="0.0138" relative="1" as="geometry">
            <mxPoint as="offset" />
          </mxGeometry>
        </mxCell>
        <mxCell id="BbmM9StXe9BSazT1SABr-115" style="edgeStyle=none;shape=connector;rounded=0;orthogonalLoop=1;jettySize=auto;html=1;strokeColor=default;align=center;verticalAlign=middle;fontFamily=Helvetica;fontSize=11;fontColor=default;labelBackgroundColor=default;endArrow=none;startArrow=classic;startFill=0;" edge="1" parent="1" source="BbmM9StXe9BSazT1SABr-10" target="BbmM9StXe9BSazT1SABr-27">
          <mxGeometry relative="1" as="geometry" />
        </mxCell>
        <mxCell id="BbmM9StXe9BSazT1SABr-118" value="&lt;div&gt;Malicious Link&lt;/div&gt;&lt;div&gt;not found&lt;/div&gt;" style="edgeLabel;html=1;align=center;verticalAlign=middle;resizable=0;points=[];fontFamily=Helvetica;fontSize=11;fontColor=default;labelBackgroundColor=default;" vertex="1" connectable="0" parent="BbmM9StXe9BSazT1SABr-115">
          <mxGeometry x="-0.0052" relative="1" as="geometry">
            <mxPoint as="offset" />
          </mxGeometry>
        </mxCell>
        <mxCell id="BbmM9StXe9BSazT1SABr-10" value="LinkDetection" style="html=1;align=center;verticalAlign=top;rounded=1;absoluteArcSize=1;arcSize=10;dashed=0;whiteSpace=wrap;" vertex="1" parent="1">
          <mxGeometry x="-370" y="380" width="100" height="30" as="geometry" />
        </mxCell>
        <mxCell id="BbmM9StXe9BSazT1SABr-108" style="edgeStyle=none;shape=connector;rounded=0;orthogonalLoop=1;jettySize=auto;html=1;entryX=0.5;entryY=0;entryDx=0;entryDy=0;strokeColor=default;align=center;verticalAlign=middle;fontFamily=Helvetica;fontSize=11;fontColor=default;labelBackgroundColor=default;endArrow=classic;exitX=0.25;exitY=1;exitDx=0;exitDy=0;" edge="1" parent="1" source="BbmM9StXe9BSazT1SABr-17" target="BbmM9StXe9BSazT1SABr-10">
          <mxGeometry relative="1" as="geometry" />
        </mxCell>
        <mxCell id="BbmM9StXe9BSazT1SABr-109" value="Extarct Text" style="edgeLabel;html=1;align=center;verticalAlign=middle;resizable=0;points=[];fontFamily=Helvetica;fontSize=11;fontColor=default;labelBackgroundColor=default;" vertex="1" connectable="0" parent="BbmM9StXe9BSazT1SABr-108">
          <mxGeometry x="-0.079" y="-1" relative="1" as="geometry">
            <mxPoint as="offset" />
          </mxGeometry>
        </mxCell>
        <mxCell id="BbmM9StXe9BSazT1SABr-126" style="edgeStyle=none;shape=connector;rounded=0;orthogonalLoop=1;jettySize=auto;html=1;entryX=0.5;entryY=0;entryDx=0;entryDy=0;strokeColor=default;align=center;verticalAlign=middle;fontFamily=Helvetica;fontSize=11;fontColor=default;labelBackgroundColor=default;endArrow=classic;" edge="1" parent="1" source="BbmM9StXe9BSazT1SABr-17" target="BbmM9StXe9BSazT1SABr-27">
          <mxGeometry relative="1" as="geometry" />
        </mxCell>
        <mxCell id="BbmM9StXe9BSazT1SABr-127" value="Extarct URLs" style="edgeLabel;html=1;align=center;verticalAlign=middle;resizable=0;points=[];fontFamily=Helvetica;fontSize=11;fontColor=default;labelBackgroundColor=default;" vertex="1" connectable="0" parent="BbmM9StXe9BSazT1SABr-126">
          <mxGeometry x="-0.1134" y="1" relative="1" as="geometry">
            <mxPoint as="offset" />
          </mxGeometry>
        </mxCell>
        <mxCell id="BbmM9StXe9BSazT1SABr-17" value="MessageAnalysis" style="html=1;align=center;verticalAlign=top;rounded=1;absoluteArcSize=1;arcSize=10;dashed=0;whiteSpace=wrap;" vertex="1" parent="1">
          <mxGeometry x="-270" y="280" width="110" height="30" as="geometry" />
        </mxCell>
        <mxCell id="BbmM9StXe9BSazT1SABr-130" value="" style="edgeStyle=none;shape=connector;rounded=0;orthogonalLoop=1;jettySize=auto;html=1;strokeColor=default;align=center;verticalAlign=middle;fontFamily=Helvetica;fontSize=11;fontColor=default;labelBackgroundColor=default;endArrow=classic;entryX=0.5;entryY=0;entryDx=0;entryDy=0;" edge="1" parent="1" source="BbmM9StXe9BSazT1SABr-22" target="BbmM9StXe9BSazT1SABr-50">
          <mxGeometry relative="1" as="geometry">
            <mxPoint x="-264.6428571428568" y="700" as="targetPoint" />
          </mxGeometry>
        </mxCell>
        <mxCell id="BbmM9StXe9BSazT1SABr-139" value="Fake News Found" style="edgeLabel;html=1;align=center;verticalAlign=middle;resizable=0;points=[];fontFamily=Helvetica;fontSize=11;fontColor=default;labelBackgroundColor=default;" vertex="1" connectable="0" parent="BbmM9StXe9BSazT1SABr-130">
          <mxGeometry x="-0.0714" relative="1" as="geometry">
            <mxPoint as="offset" />
          </mxGeometry>
        </mxCell>
        <mxCell id="BbmM9StXe9BSazT1SABr-140" style="edgeStyle=none;shape=connector;rounded=0;orthogonalLoop=1;jettySize=auto;html=1;entryX=0.5;entryY=0;entryDx=0;entryDy=0;strokeColor=default;align=center;verticalAlign=middle;fontFamily=Helvetica;fontSize=11;fontColor=default;labelBackgroundColor=default;endArrow=classic;exitX=0;exitY=0.5;exitDx=0;exitDy=0;" edge="1" parent="1" source="BbmM9StXe9BSazT1SABr-22" target="BbmM9StXe9BSazT1SABr-119">
          <mxGeometry relative="1" as="geometry" />
        </mxCell>
        <mxCell id="BbmM9StXe9BSazT1SABr-146" value="Fake New not Found" style="edgeLabel;html=1;align=center;verticalAlign=middle;resizable=0;points=[];fontFamily=Helvetica;fontSize=11;fontColor=default;labelBackgroundColor=default;" vertex="1" connectable="0" parent="BbmM9StXe9BSazT1SABr-140">
          <mxGeometry x="0.3416" y="1" relative="1" as="geometry">
            <mxPoint x="-1" as="offset" />
          </mxGeometry>
        </mxCell>
        <mxCell id="BbmM9StXe9BSazT1SABr-22" value="FakeNews Detection" style="html=1;align=center;verticalAlign=top;rounded=1;absoluteArcSize=1;arcSize=10;dashed=0;whiteSpace=wrap;" vertex="1" parent="1">
          <mxGeometry x="-357.49999999999994" y="590" width="100" height="40" as="geometry" />
        </mxCell>
        <mxCell id="BbmM9StXe9BSazT1SABr-116" style="edgeStyle=none;shape=connector;rounded=0;orthogonalLoop=1;jettySize=auto;html=1;strokeColor=default;align=center;verticalAlign=middle;fontFamily=Helvetica;fontSize=11;fontColor=default;labelBackgroundColor=default;endArrow=classic;entryX=0.5;entryY=0;entryDx=0;entryDy=0;exitX=0.5;exitY=1;exitDx=0;exitDy=0;" edge="1" parent="1" source="BbmM9StXe9BSazT1SABr-27" target="BbmM9StXe9BSazT1SABr-55">
          <mxGeometry relative="1" as="geometry">
            <mxPoint x="-70" y="440" as="targetPoint" />
          </mxGeometry>
        </mxCell>
        <mxCell id="BbmM9StXe9BSazT1SABr-138" value="Malicious Link&lt;br&gt;found" style="edgeLabel;html=1;align=center;verticalAlign=middle;resizable=0;points=[];fontFamily=Helvetica;fontSize=11;fontColor=default;labelBackgroundColor=default;" vertex="1" connectable="0" parent="BbmM9StXe9BSazT1SABr-116">
          <mxGeometry x="-0.1143" y="-1" relative="1" as="geometry">
            <mxPoint as="offset" />
          </mxGeometry>
        </mxCell>
        <mxCell id="BbmM9StXe9BSazT1SABr-128" style="edgeStyle=none;shape=connector;rounded=0;orthogonalLoop=1;jettySize=auto;html=1;entryX=0.5;entryY=0;entryDx=0;entryDy=0;strokeColor=default;align=center;verticalAlign=middle;fontFamily=Helvetica;fontSize=11;fontColor=default;labelBackgroundColor=default;endArrow=classic;exitX=0.25;exitY=1;exitDx=0;exitDy=0;" edge="1" parent="1" source="BbmM9StXe9BSazT1SABr-10" target="BbmM9StXe9BSazT1SABr-60">
          <mxGeometry relative="1" as="geometry" />
        </mxCell>
        <mxCell id="BbmM9StXe9BSazT1SABr-129" value="Spam Not found" style="edgeLabel;html=1;align=center;verticalAlign=middle;resizable=0;points=[];fontFamily=Helvetica;fontSize=11;fontColor=default;labelBackgroundColor=default;" vertex="1" connectable="0" parent="BbmM9StXe9BSazT1SABr-128">
          <mxGeometry x="0.0015" y="-1" relative="1" as="geometry">
            <mxPoint as="offset" />
          </mxGeometry>
        </mxCell>
        <mxCell id="BbmM9StXe9BSazT1SABr-27" value="LinkDetection" style="html=1;align=center;verticalAlign=top;rounded=1;absoluteArcSize=1;arcSize=10;dashed=0;whiteSpace=wrap;" vertex="1" parent="1">
          <mxGeometry x="-150" y="380" width="100" height="30" as="geometry" />
        </mxCell>
        <mxCell id="BbmM9StXe9BSazT1SABr-105" style="edgeStyle=none;shape=connector;rounded=0;orthogonalLoop=1;jettySize=auto;html=1;entryX=0.5;entryY=0;entryDx=0;entryDy=0;strokeColor=default;align=center;verticalAlign=middle;fontFamily=Helvetica;fontSize=11;fontColor=default;labelBackgroundColor=default;endArrow=classic;" edge="1" parent="1" source="BbmM9StXe9BSazT1SABr-33" target="BbmM9StXe9BSazT1SABr-17">
          <mxGeometry relative="1" as="geometry" />
        </mxCell>
        <mxCell id="BbmM9StXe9BSazT1SABr-33" value="ProcessingMessage" style="html=1;align=center;verticalAlign=top;rounded=1;absoluteArcSize=1;arcSize=10;dashed=0;whiteSpace=wrap;" vertex="1" parent="1">
          <mxGeometry x="-380" y="200" width="130" height="30" as="geometry" />
        </mxCell>
        <mxCell id="BbmM9StXe9BSazT1SABr-82" style="edgeStyle=orthogonalEdgeStyle;rounded=0;orthogonalLoop=1;jettySize=auto;html=1;" edge="1" parent="1" source="BbmM9StXe9BSazT1SABr-38" target="BbmM9StXe9BSazT1SABr-77">
          <mxGeometry relative="1" as="geometry" />
        </mxCell>
        <mxCell id="BbmM9StXe9BSazT1SABr-38" value="Start" style="html=1;align=center;verticalAlign=top;rounded=1;absoluteArcSize=1;arcSize=10;dashed=0;whiteSpace=wrap;" vertex="1" parent="1">
          <mxGeometry x="-755" y="390" width="70" height="30" as="geometry" />
        </mxCell>
        <mxCell id="BbmM9StXe9BSazT1SABr-85" style="rounded=0;orthogonalLoop=1;jettySize=auto;html=1;entryX=0.5;entryY=0;entryDx=0;entryDy=0;exitX=0.25;exitY=1;exitDx=0;exitDy=0;" edge="1" parent="1" source="BbmM9StXe9BSazT1SABr-45" target="BbmM9StXe9BSazT1SABr-75">
          <mxGeometry relative="1" as="geometry" />
        </mxCell>
        <mxCell id="BbmM9StXe9BSazT1SABr-91" value="/stop" style="edgeLabel;html=1;align=center;verticalAlign=middle;resizable=0;points=[];fontFamily=Helvetica;fontSize=11;fontColor=default;labelBackgroundColor=default;" vertex="1" connectable="0" parent="BbmM9StXe9BSazT1SABr-85">
          <mxGeometry x="-0.1496" y="-2" relative="1" as="geometry">
            <mxPoint as="offset" />
          </mxGeometry>
        </mxCell>
        <mxCell id="BbmM9StXe9BSazT1SABr-86" style="edgeStyle=none;shape=connector;rounded=0;orthogonalLoop=1;jettySize=auto;html=1;entryX=0.5;entryY=0;entryDx=0;entryDy=0;strokeColor=default;align=center;verticalAlign=middle;fontFamily=Helvetica;fontSize=11;fontColor=default;labelBackgroundColor=default;endArrow=classic;exitX=0.5;exitY=1;exitDx=0;exitDy=0;" edge="1" parent="1" source="BbmM9StXe9BSazT1SABr-45" target="BbmM9StXe9BSazT1SABr-38">
          <mxGeometry relative="1" as="geometry" />
        </mxCell>
        <mxCell id="BbmM9StXe9BSazT1SABr-92" value="/start" style="edgeLabel;html=1;align=center;verticalAlign=middle;resizable=0;points=[];fontFamily=Helvetica;fontSize=11;fontColor=default;labelBackgroundColor=default;" vertex="1" connectable="0" parent="BbmM9StXe9BSazT1SABr-86">
          <mxGeometry x="-0.0129" y="-2" relative="1" as="geometry">
            <mxPoint as="offset" />
          </mxGeometry>
        </mxCell>
        <mxCell id="BbmM9StXe9BSazT1SABr-87" style="edgeStyle=none;shape=connector;rounded=0;orthogonalLoop=1;jettySize=auto;html=1;entryX=0.5;entryY=0;entryDx=0;entryDy=0;strokeColor=default;align=center;verticalAlign=middle;fontFamily=Helvetica;fontSize=11;fontColor=default;labelBackgroundColor=default;endArrow=classic;exitX=0.5;exitY=1;exitDx=0;exitDy=0;" edge="1" parent="1" source="BbmM9StXe9BSazT1SABr-45" target="BbmM9StXe9BSazT1SABr-70">
          <mxGeometry relative="1" as="geometry" />
        </mxCell>
        <mxCell id="BbmM9StXe9BSazT1SABr-93" value="/help" style="edgeLabel;html=1;align=center;verticalAlign=middle;resizable=0;points=[];fontFamily=Helvetica;fontSize=11;fontColor=default;labelBackgroundColor=default;" vertex="1" connectable="0" parent="BbmM9StXe9BSazT1SABr-87">
          <mxGeometry x="-0.0393" y="-1" relative="1" as="geometry">
            <mxPoint as="offset" />
          </mxGeometry>
        </mxCell>
        <mxCell id="BbmM9StXe9BSazT1SABr-88" style="edgeStyle=none;shape=connector;rounded=0;orthogonalLoop=1;jettySize=auto;html=1;entryX=0.5;entryY=0;entryDx=0;entryDy=0;strokeColor=default;align=center;verticalAlign=middle;fontFamily=Helvetica;fontSize=11;fontColor=default;labelBackgroundColor=default;endArrow=classic;exitX=0.5;exitY=1;exitDx=0;exitDy=0;" edge="1" parent="1" source="BbmM9StXe9BSazT1SABr-45" target="BbmM9StXe9BSazT1SABr-71">
          <mxGeometry relative="1" as="geometry" />
        </mxCell>
        <mxCell id="BbmM9StXe9BSazT1SABr-94" value="/toggle" style="edgeLabel;html=1;align=center;verticalAlign=middle;resizable=0;points=[];fontFamily=Helvetica;fontSize=11;fontColor=default;labelBackgroundColor=default;" vertex="1" connectable="0" parent="BbmM9StXe9BSazT1SABr-88">
          <mxGeometry x="-0.0527" y="1" relative="1" as="geometry">
            <mxPoint as="offset" />
          </mxGeometry>
        </mxCell>
        <mxCell id="BbmM9StXe9BSazT1SABr-90" style="edgeStyle=none;shape=connector;rounded=0;orthogonalLoop=1;jettySize=auto;html=1;entryX=0.5;entryY=0;entryDx=0;entryDy=0;strokeColor=default;align=center;verticalAlign=middle;fontFamily=Helvetica;fontSize=11;fontColor=default;labelBackgroundColor=default;endArrow=classic;exitX=1;exitY=0.75;exitDx=0;exitDy=0;" edge="1" parent="1" source="BbmM9StXe9BSazT1SABr-45" target="BbmM9StXe9BSazT1SABr-73">
          <mxGeometry relative="1" as="geometry" />
        </mxCell>
        <mxCell id="BbmM9StXe9BSazT1SABr-96" value="/checkmessage" style="edgeLabel;html=1;align=center;verticalAlign=middle;resizable=0;points=[];fontFamily=Helvetica;fontSize=11;fontColor=default;labelBackgroundColor=default;" vertex="1" connectable="0" parent="BbmM9StXe9BSazT1SABr-90">
          <mxGeometry x="-0.3246" y="1" relative="1" as="geometry">
            <mxPoint as="offset" />
          </mxGeometry>
        </mxCell>
        <mxCell id="BbmM9StXe9BSazT1SABr-45" value="ProcessingCommand" style="html=1;align=center;verticalAlign=top;rounded=1;absoluteArcSize=1;arcSize=10;dashed=0;whiteSpace=wrap;" vertex="1" parent="1">
          <mxGeometry x="-700" y="200" width="140" height="30" as="geometry" />
        </mxCell>
        <mxCell id="BbmM9StXe9BSazT1SABr-122" style="edgeStyle=none;shape=connector;rounded=0;orthogonalLoop=1;jettySize=auto;html=1;strokeColor=default;align=center;verticalAlign=middle;fontFamily=Helvetica;fontSize=11;fontColor=default;labelBackgroundColor=default;endArrow=classic;" edge="1" parent="1" source="BbmM9StXe9BSazT1SABr-48">
          <mxGeometry relative="1" as="geometry">
            <mxPoint x="-640" y="800" as="targetPoint" />
          </mxGeometry>
        </mxCell>
        <mxCell id="BbmM9StXe9BSazT1SABr-48" value="DisplayHelp" style="html=1;align=center;verticalAlign=top;rounded=1;absoluteArcSize=1;arcSize=10;dashed=0;whiteSpace=wrap;" vertex="1" parent="1">
          <mxGeometry x="-690" y="550" width="100" height="30" as="geometry" />
        </mxCell>
        <mxCell id="BbmM9StXe9BSazT1SABr-135" style="edgeStyle=none;shape=connector;rounded=0;orthogonalLoop=1;jettySize=auto;html=1;strokeColor=default;align=center;verticalAlign=middle;fontFamily=Helvetica;fontSize=11;fontColor=default;labelBackgroundColor=default;endArrow=classic;" edge="1" parent="1" source="BbmM9StXe9BSazT1SABr-50">
          <mxGeometry relative="1" as="geometry">
            <mxPoint x="-310" y="800" as="targetPoint" />
          </mxGeometry>
        </mxCell>
        <mxCell id="BbmM9StXe9BSazT1SABr-50" value="FakeNewsWarning" style="html=1;align=center;verticalAlign=top;rounded=1;absoluteArcSize=1;arcSize=10;dashed=0;whiteSpace=wrap;" vertex="1" parent="1">
          <mxGeometry x="-364.99999999999994" y="670" width="115" height="30" as="geometry" />
        </mxCell>
        <mxCell id="BbmM9StXe9BSazT1SABr-144" style="edgeStyle=none;shape=connector;rounded=0;orthogonalLoop=1;jettySize=auto;html=1;strokeColor=default;align=center;verticalAlign=middle;fontFamily=Helvetica;fontSize=11;fontColor=default;labelBackgroundColor=default;endArrow=classic;" edge="1" parent="1" source="BbmM9StXe9BSazT1SABr-53">
          <mxGeometry relative="1" as="geometry">
            <mxPoint x="-185" y="800" as="targetPoint" />
          </mxGeometry>
        </mxCell>
        <mxCell id="BbmM9StXe9BSazT1SABr-53" value="Spam Warning" style="html=1;align=center;verticalAlign=top;rounded=1;absoluteArcSize=1;arcSize=10;dashed=0;whiteSpace=wrap;" vertex="1" parent="1">
          <mxGeometry x="-250" y="540" width="130" height="30" as="geometry" />
        </mxCell>
        <mxCell id="BbmM9StXe9BSazT1SABr-136" style="edgeStyle=none;shape=connector;rounded=0;orthogonalLoop=1;jettySize=auto;html=1;strokeColor=default;align=center;verticalAlign=middle;fontFamily=Helvetica;fontSize=11;fontColor=default;labelBackgroundColor=default;endArrow=classic;" edge="1" parent="1" source="BbmM9StXe9BSazT1SABr-55">
          <mxGeometry relative="1" as="geometry">
            <mxPoint x="-100" y="800" as="targetPoint" />
          </mxGeometry>
        </mxCell>
        <mxCell id="BbmM9StXe9BSazT1SABr-55" value="MaliciousLinkWarning" style="html=1;align=center;verticalAlign=top;rounded=1;absoluteArcSize=1;arcSize=10;dashed=0;whiteSpace=wrap;" vertex="1" parent="1">
          <mxGeometry x="-160" y="480" width="120" height="30" as="geometry" />
        </mxCell>
        <mxCell id="BbmM9StXe9BSazT1SABr-131" style="edgeStyle=none;shape=connector;rounded=0;orthogonalLoop=1;jettySize=auto;html=1;strokeColor=default;align=center;verticalAlign=middle;fontFamily=Helvetica;fontSize=11;fontColor=default;labelBackgroundColor=default;endArrow=classic;" edge="1" parent="1" source="BbmM9StXe9BSazT1SABr-60" target="BbmM9StXe9BSazT1SABr-22">
          <mxGeometry relative="1" as="geometry" />
        </mxCell>
        <mxCell id="BbmM9StXe9BSazT1SABr-60" value="Extract Title &amp;amp; text" style="html=1;align=center;verticalAlign=top;rounded=1;absoluteArcSize=1;arcSize=10;dashed=0;whiteSpace=wrap;" vertex="1" parent="1">
          <mxGeometry x="-357.49999999999994" y="540" width="100" height="30" as="geometry" />
        </mxCell>
        <mxCell id="BbmM9StXe9BSazT1SABr-102" style="edgeStyle=none;shape=connector;rounded=0;orthogonalLoop=1;jettySize=auto;html=1;entryX=0.5;entryY=0;entryDx=0;entryDy=0;strokeColor=default;align=center;verticalAlign=middle;fontFamily=Helvetica;fontSize=11;fontColor=default;labelBackgroundColor=default;endArrow=classic;" edge="1" parent="1" source="BbmM9StXe9BSazT1SABr-68" target="BbmM9StXe9BSazT1SABr-5">
          <mxGeometry relative="1" as="geometry" />
        </mxCell>
        <mxCell id="BbmM9StXe9BSazT1SABr-103" value="Bot Started" style="edgeLabel;html=1;align=center;verticalAlign=middle;resizable=0;points=[];fontFamily=Helvetica;fontSize=11;fontColor=default;labelBackgroundColor=default;" vertex="1" connectable="0" parent="BbmM9StXe9BSazT1SABr-102">
          <mxGeometry x="-0.1857" y="-1" relative="1" as="geometry">
            <mxPoint as="offset" />
          </mxGeometry>
        </mxCell>
        <mxCell id="BbmM9StXe9BSazT1SABr-68" value="" style="ellipse;html=1;shape=startState;fillColor=#000000;strokeColor=#000000;" vertex="1" parent="1">
          <mxGeometry x="-475" y="30" width="30" height="30" as="geometry" />
        </mxCell>
        <mxCell id="BbmM9StXe9BSazT1SABr-81" style="edgeStyle=orthogonalEdgeStyle;rounded=0;orthogonalLoop=1;jettySize=auto;html=1;" edge="1" parent="1" source="BbmM9StXe9BSazT1SABr-70" target="BbmM9StXe9BSazT1SABr-48">
          <mxGeometry relative="1" as="geometry" />
        </mxCell>
        <mxCell id="BbmM9StXe9BSazT1SABr-70" value="Help" style="html=1;align=center;verticalAlign=top;rounded=1;absoluteArcSize=1;arcSize=10;dashed=0;whiteSpace=wrap;" vertex="1" parent="1">
          <mxGeometry x="-675" y="390" width="70" height="30" as="geometry" />
        </mxCell>
        <mxCell id="BbmM9StXe9BSazT1SABr-80" style="edgeStyle=orthogonalEdgeStyle;rounded=0;orthogonalLoop=1;jettySize=auto;html=1;" edge="1" parent="1" source="BbmM9StXe9BSazT1SABr-71" target="BbmM9StXe9BSazT1SABr-78">
          <mxGeometry relative="1" as="geometry" />
        </mxCell>
        <mxCell id="BbmM9StXe9BSazT1SABr-71" value="Toggle" style="html=1;align=center;verticalAlign=top;rounded=1;absoluteArcSize=1;arcSize=10;dashed=0;whiteSpace=wrap;" vertex="1" parent="1">
          <mxGeometry x="-595" y="390" width="70" height="30" as="geometry" />
        </mxCell>
        <mxCell id="BbmM9StXe9BSazT1SABr-79" style="edgeStyle=orthogonalEdgeStyle;rounded=0;orthogonalLoop=1;jettySize=auto;html=1;" edge="1" parent="1" source="BbmM9StXe9BSazT1SABr-72" target="BbmM9StXe9BSazT1SABr-76">
          <mxGeometry relative="1" as="geometry" />
        </mxCell>
        <mxCell id="BbmM9StXe9BSazT1SABr-72" value="Status" style="html=1;align=center;verticalAlign=top;rounded=1;absoluteArcSize=1;arcSize=10;dashed=0;whiteSpace=wrap;" vertex="1" parent="1">
          <mxGeometry x="-510" y="390" width="70" height="30" as="geometry" />
        </mxCell>
        <mxCell id="BbmM9StXe9BSazT1SABr-110" style="edgeStyle=none;shape=connector;rounded=0;orthogonalLoop=1;jettySize=auto;html=1;entryX=0;entryY=0.5;entryDx=0;entryDy=0;strokeColor=default;align=center;verticalAlign=middle;fontFamily=Helvetica;fontSize=11;fontColor=default;labelBackgroundColor=default;endArrow=classic;" edge="1" parent="1" source="BbmM9StXe9BSazT1SABr-73" target="BbmM9StXe9BSazT1SABr-17">
          <mxGeometry relative="1" as="geometry" />
        </mxCell>
        <mxCell id="BbmM9StXe9BSazT1SABr-112" value="&lt;div&gt;Read tagged&lt;/div&gt;&lt;div&gt;message&lt;/div&gt;" style="edgeLabel;html=1;align=center;verticalAlign=middle;resizable=0;points=[];fontFamily=Helvetica;fontSize=11;fontColor=default;labelBackgroundColor=default;" vertex="1" connectable="0" parent="BbmM9StXe9BSazT1SABr-110">
          <mxGeometry x="0.019" y="1" relative="1" as="geometry">
            <mxPoint as="offset" />
          </mxGeometry>
        </mxCell>
        <mxCell id="BbmM9StXe9BSazT1SABr-73" value="Checkmessage" style="html=1;align=center;verticalAlign=top;rounded=1;absoluteArcSize=1;arcSize=10;dashed=0;whiteSpace=wrap;" vertex="1" parent="1">
          <mxGeometry x="-500" y="280" width="90" height="30" as="geometry" />
        </mxCell>
        <mxCell id="BbmM9StXe9BSazT1SABr-84" style="edgeStyle=orthogonalEdgeStyle;rounded=0;orthogonalLoop=1;jettySize=auto;html=1;entryX=0.5;entryY=0;entryDx=0;entryDy=0;" edge="1" parent="1" source="BbmM9StXe9BSazT1SABr-75" target="BbmM9StXe9BSazT1SABr-83">
          <mxGeometry relative="1" as="geometry" />
        </mxCell>
        <mxCell id="BbmM9StXe9BSazT1SABr-75" value="Stop" style="html=1;align=center;verticalAlign=top;rounded=1;absoluteArcSize=1;arcSize=10;dashed=0;whiteSpace=wrap;" vertex="1" parent="1">
          <mxGeometry x="-835" y="390" width="70" height="30" as="geometry" />
        </mxCell>
        <mxCell id="BbmM9StXe9BSazT1SABr-124" style="edgeStyle=none;shape=connector;rounded=0;orthogonalLoop=1;jettySize=auto;html=1;strokeColor=default;align=center;verticalAlign=middle;fontFamily=Helvetica;fontSize=11;fontColor=default;labelBackgroundColor=default;endArrow=classic;" edge="1" parent="1" source="BbmM9StXe9BSazT1SABr-76">
          <mxGeometry relative="1" as="geometry">
            <mxPoint x="-519.9999999999999" y="800" as="targetPoint" />
          </mxGeometry>
        </mxCell>
        <mxCell id="BbmM9StXe9BSazT1SABr-76" value="Display status" style="html=1;align=center;verticalAlign=top;rounded=1;absoluteArcSize=1;arcSize=10;dashed=0;whiteSpace=wrap;" vertex="1" parent="1">
          <mxGeometry x="-525" y="550" width="100" height="30" as="geometry" />
        </mxCell>
        <mxCell id="BbmM9StXe9BSazT1SABr-120" style="edgeStyle=orthogonalEdgeStyle;shape=connector;rounded=0;orthogonalLoop=1;jettySize=auto;html=1;entryX=0;entryY=0.5;entryDx=0;entryDy=0;strokeColor=default;align=center;verticalAlign=middle;fontFamily=Helvetica;fontSize=11;fontColor=default;labelBackgroundColor=default;endArrow=classic;exitX=0.5;exitY=1;exitDx=0;exitDy=0;" edge="1" parent="1" source="BbmM9StXe9BSazT1SABr-77" target="BbmM9StXe9BSazT1SABr-119">
          <mxGeometry relative="1" as="geometry">
            <Array as="points">
              <mxPoint x="-720" y="800" />
              <mxPoint x="-475" y="800" />
            </Array>
          </mxGeometry>
        </mxCell>
        <mxCell id="BbmM9StXe9BSazT1SABr-77" value="Display Welcome" style="html=1;align=center;verticalAlign=top;rounded=1;absoluteArcSize=1;arcSize=10;dashed=0;whiteSpace=wrap;" vertex="1" parent="1">
          <mxGeometry x="-770" y="490" width="100" height="30" as="geometry" />
        </mxCell>
        <mxCell id="BbmM9StXe9BSazT1SABr-123" style="edgeStyle=none;shape=connector;rounded=0;orthogonalLoop=1;jettySize=auto;html=1;strokeColor=default;align=center;verticalAlign=middle;fontFamily=Helvetica;fontSize=11;fontColor=default;labelBackgroundColor=default;endArrow=classic;" edge="1" parent="1" source="BbmM9StXe9BSazT1SABr-78">
          <mxGeometry relative="1" as="geometry">
            <mxPoint x="-560" y="800" as="targetPoint" />
          </mxGeometry>
        </mxCell>
        <mxCell id="BbmM9StXe9BSazT1SABr-78" value="Toggle feature" style="html=1;align=center;verticalAlign=top;rounded=1;absoluteArcSize=1;arcSize=10;dashed=0;whiteSpace=wrap;" vertex="1" parent="1">
          <mxGeometry x="-610" y="480" width="100" height="30" as="geometry" />
        </mxCell>
        <mxCell id="BbmM9StXe9BSazT1SABr-83" value="" style="ellipse;html=1;shape=endState;fillColor=#000000;strokeColor=#ff0000;" vertex="1" parent="1">
          <mxGeometry x="-815" y="580" width="30" height="30" as="geometry" />
        </mxCell>
        <mxCell id="BbmM9StXe9BSazT1SABr-89" style="edgeStyle=none;shape=connector;rounded=0;orthogonalLoop=1;jettySize=auto;html=1;entryX=0.569;entryY=0.073;entryDx=0;entryDy=0;entryPerimeter=0;strokeColor=default;align=center;verticalAlign=middle;fontFamily=Helvetica;fontSize=11;fontColor=default;labelBackgroundColor=default;endArrow=classic;exitX=0.75;exitY=1;exitDx=0;exitDy=0;" edge="1" parent="1" source="BbmM9StXe9BSazT1SABr-45" target="BbmM9StXe9BSazT1SABr-72">
          <mxGeometry relative="1" as="geometry" />
        </mxCell>
        <mxCell id="BbmM9StXe9BSazT1SABr-95" value="/status" style="edgeLabel;html=1;align=center;verticalAlign=middle;resizable=0;points=[];fontFamily=Helvetica;fontSize=11;fontColor=default;labelBackgroundColor=default;" vertex="1" connectable="0" parent="BbmM9StXe9BSazT1SABr-89">
          <mxGeometry x="-0.1339" y="-1" relative="1" as="geometry">
            <mxPoint as="offset" />
          </mxGeometry>
        </mxCell>
        <mxCell id="BbmM9StXe9BSazT1SABr-132" style="edgeStyle=orthogonalEdgeStyle;shape=connector;rounded=0;orthogonalLoop=1;jettySize=auto;html=1;strokeColor=default;align=center;verticalAlign=middle;fontFamily=Helvetica;fontSize=11;fontColor=default;labelBackgroundColor=default;endArrow=classic;" edge="1" parent="1" source="BbmM9StXe9BSazT1SABr-119" target="BbmM9StXe9BSazT1SABr-5">
          <mxGeometry relative="1" as="geometry">
            <Array as="points">
              <mxPoint x="-20" y="800" />
              <mxPoint x="-20" y="115" />
            </Array>
          </mxGeometry>
        </mxCell>
        <mxCell id="BbmM9StXe9BSazT1SABr-119" value="Continue" style="html=1;align=center;verticalAlign=top;rounded=1;absoluteArcSize=1;arcSize=10;dashed=0;whiteSpace=wrap;" vertex="1" parent="1">
          <mxGeometry x="-475" y="785" width="100" height="30" as="geometry" />
        </mxCell>
      </root>
    </mxGraphModel>
  </diagram>
</mxfile>
